HIERARCHY
ROOT hip
{
  OFFSET 0.00112043 5.09927 -9.65472
  CHANNELS 6 Xposition Yposition Zposition Zrotation Xrotation Yrotation
  JOINT abdomen
  {
    OFFSET 0 -1.186 -1.5018
    CHANNELS 3 Zrotation Xrotation Yrotation
    JOINT abdomen2
    {
      OFFSET 0 9.964 0.2134
      CHANNELS 3 Zrotation Xrotation Yrotation
      JOINT chest
      {
        OFFSET 0 13.134 -3.2573
        CHANNELS 3 Zrotation Xrotation Yrotation
        JOINT neck
        {
          OFFSET 0 20.686 -1.6905
          CHANNELS 3 Zrotation Xrotation Yrotation
          JOINT head
          {
            OFFSET 0 7.238 -0.1237
            CHANNELS 3 Zrotation Xrotation Yrotation
            End Site
            {
              OFFSET 0 0 0
            }
          }
        }
        JOINT lCollar
        {
          OFFSET 1.7069 20.075 5.0056
          CHANNELS 3 Zrotation Xrotation Yrotation
          JOINT lShldr
          {
            OFFSET 13.6458 -0.047 -4.849
            CHANNELS 3 Zrotation Xrotation Yrotation
            JOINT lForeArm
            {
              OFFSET 28.3255 -0.9759 2.2888
              CHANNELS 3 Zrotation Xrotation Yrotation
              JOINT lHand
              {
                OFFSET 22.1583 -0.53 10.8316
                CHANNELS 3 Zrotation Xrotation Yrotation
                JOINT lThumb1
                {
                  OFFSET 0.786 0.112 2.5817
                  CHANNELS 3 Zrotation Xrotation Yrotation
                  JOINT lThumb2
                  {
                    OFFSET 0.3601 -0.878 4.2331
                    CHANNELS 3 Zrotation Xrotation Yrotation
                    JOINT lThumb2_End
                    {
                      OFFSET 1.8127 -1.216 2.2227
                      CHANNELS 3 Zrotation Xrotation Yrotation
                      End Site
                      {
                        OFFSET 0.0181 -0.0122 0.0222
                      }
                    }
                  }
                }
                JOINT lCarpal1
                {
                  OFFSET 0.9571 1.114 1.7695
                  CHANNELS 3 Zrotation Xrotation Yrotation
                  JOINT lIndex1
                  {
                    OFFSET 4.1246 0.487 4.1451
                    CHANNELS 3 Zrotation Xrotation Yrotation
                    JOINT lIndex2
                    {
                      OFFSET 3.4052 -1.454 2.7682
                      CHANNELS 3 Zrotation Xrotation Yrotation
                      JOINT lIndex2_End
                      {
                        OFFSET 1.4531 -1.795 1.2713
                        CHANNELS 3 Zrotation Xrotation Yrotation
                        End Site
                        {
                          OFFSET 0.0145 -0.0179 0.0127
                        }
                      }
                    }
                  }
                  JOINT lMid1
                  {
                    OFFSET 5.6954 0.21 2.1184
                    CHANNELS 3 Zrotation Xrotation Yrotation
                    JOINT lMid2
                    {
                      OFFSET 3.9766 -1.54 2.3863
                      CHANNELS 3 Zrotation Xrotation Yrotation
                      JOINT lMid2_End
                      {
                        OFFSET 1.4042 -1.926 1.125
                        CHANNELS 3 Zrotation Xrotation Yrotation
                        End Site
                        {
                          OFFSET 0.014 -0.0193 0.0113
                        }
                      }
                    }
                  }
                }
                JOINT lCarpal2
                {
                  OFFSET 2.0956 0.66 -0.3894
                  CHANNELS 3 Zrotation Xrotation Yrotation
                  JOINT lRing1
                  {
                    OFFSET 5.0395 -0.09 2.4971
                    CHANNELS 3 Zrotation Xrotation Yrotation
                    JOINT lRing2
                    {
                      OFFSET 3.7921 -1.552 1.4806
                      CHANNELS 3 Zrotation Xrotation Yrotation
                      JOINT lRing2_End
                      {
                        OFFSET 1.4655 -1.808 0.9609
                        CHANNELS 3 Zrotation Xrotation Yrotation
                        End Site
                        {
                          OFFSET 0.0147 -0.0181 0.0096
                        }
                      }
                    }
                  }
                  JOINT lPinky1
                  {
                    OFFSET 4.9141 -1.269 0.3591
                    CHANNELS 3 Zrotation Xrotation Yrotation
                    JOINT lPinky2
                    {
                      OFFSET 3.1477 -1.685 0.8462
                      CHANNELS 3 Zrotation Xrotation Yrotation
                      JOINT lPinky2_End
                      {
                        OFFSET 0.8055 -1.585 0.7955
                        CHANNELS 3 Zrotation Xrotation Yrotation
                        End Site
                        {
                          OFFSET 0.0081 -0.0158 0.008
                        }
                      }
                    }
                  }
                }
              }
            }
          }
        }
        JOINT rCollar
        {
          OFFSET -1.7069 20.075 5.0056
          CHANNELS 3 Zrotation Xrotation Yrotation
          JOINT rShldr
          {
            OFFSET -13.6458 -0.047 -4.849
            CHANNELS 3 Zrotation Xrotation Yrotation
            JOINT rForeArm
            {
              OFFSET -28.3255 -0.9759 2.2888
              CHANNELS 3 Zrotation Xrotation Yrotation
              JOINT rHand
              {
                OFFSET -22.1583 -0.53 10.8316
                CHANNELS 3 Zrotation Xrotation Yrotation
                JOINT rThumb1
                {
                  OFFSET -0.786 0.112 2.5817
                  CHANNELS 3 Zrotation Xrotation Yrotation
                  JOINT rThumb2
                  {
                    OFFSET -0.3601 -0.878 4.2331
                    CHANNELS 3 Zrotation Xrotation Yrotation
                    JOINT rThumb2_End
                    {
                      OFFSET -1.8127 -1.216 2.2227
                      CHANNELS 3 Zrotation Xrotation Yrotation
                      End Site
                      {
                        OFFSET -0.0181 -0.0122 0.0222
                      }
                    }
                  }
                }
                JOINT rCarpal1
                {
                  OFFSET -0.9571 1.114 1.7695
                  CHANNELS 3 Zrotation Xrotation Yrotation
                  JOINT rIndex1
                  {
                    OFFSET -4.1246 0.487 4.1451
                    CHANNELS 3 Zrotation Xrotation Yrotation
                    JOINT rIndex2
                    {
                      OFFSET -3.4052 -1.454 2.7682
                      CHANNELS 3 Zrotation Xrotation Yrotation
                      JOINT rIndex2_End
                      {
                        OFFSET -1.4531 -1.795 1.2713
                        CHANNELS 3 Zrotation Xrotation Yrotation
                        End Site
                        {
                          OFFSET -0.0145 -0.018 0.0127
                        }
                      }
                    }
                  }
                  JOINT rMid1
                  {
                    OFFSET -5.6954 0.21 2.1184
                    CHANNELS 3 Zrotation Xrotation Yrotation
                    JOINT rMid2
                    {
                      OFFSET -3.9766 -1.54 2.3863
                      CHANNELS 3 Zrotation Xrotation Yrotation
                      JOINT rMid2_End
                      {
                        OFFSET -1.4042 -1.926 1.125
                        CHANNELS 3 Zrotation Xrotation Yrotation
                        End Site
                        {
                          OFFSET -0.014 -0.0193 0.0113
                        }
                      }
                    }
                  }
                }
                JOINT rCarpal2
                {
                  OFFSET -2.0956 0.66 -0.3894
                  CHANNELS 3 Zrotation Xrotation Yrotation
                  JOINT rRing1
                  {
                    OFFSET -5.0395 -0.09 2.4971
                    CHANNELS 3 Zrotation Xrotation Yrotation
                    JOINT rRing2
                    {
                      OFFSET -3.7921 -1.552 1.4806
                      CHANNELS 3 Zrotation Xrotation Yrotation
                      JOINT rRing2_End
                      {
                        OFFSET -1.4655 -1.808 0.9609
                        CHANNELS 3 Zrotation Xrotation Yrotation
                        End Site
                        {
                          OFFSET -0.0147 -0.0181 0.0096
                        }
                      }
                    }
                  }
                  JOINT rPinky1
                  {
                    OFFSET -4.9141 -1.269 0.3592
                    CHANNELS 3 Zrotation Xrotation Yrotation
                    JOINT rPinky2
                    {
                      OFFSET -3.1477 -1.685 0.8462
                      CHANNELS 3 Zrotation Xrotation Yrotation
                      JOINT rPinky2_End
                      {
                        OFFSET -0.8055 -1.585 0.7955
                        CHANNELS 3 Zrotation Xrotation Yrotation
                        End Site
                        {
                          OFFSET -0.0081 -0.0158 0.008
                        }
                      }
                    }
                  }
                }
              }
            }
          }
        }
      }
    }
  }
  JOINT lThigh
  {
    OFFSET 8.367 -8.2066 0.5982
    CHANNELS 3 Zrotation Xrotation Yrotation
    JOINT lShin
    {
      OFFSET 2.1923 -43.463 -0.4932
      CHANNELS 3 Zrotation Xrotation Yrotation
      JOINT lFoot
      {
        OFFSET 0.7333 -45.8593 -2.6451
        CHANNELS 3 Zrotation Xrotation Yrotation
        End Site
        {
          OFFSET 2.6618 -4.2699 12.3931
        }
      }
    }
  }
  JOINT rThigh
  {
    OFFSET -8.367 -8.2066 0.5982
    CHANNELS 3 Zrotation Xrotation Yrotation
    JOINT rShin
    {
      OFFSET -2.1923 -43.463 -0.4931
      CHANNELS 3 Zrotation Xrotation Yrotation
      JOINT rFoot
      {
        OFFSET -0.7333 -45.8593 -2.6451
        CHANNELS 3 Zrotation Xrotation Yrotation
        End Site
        {
          OFFSET -2.6618 -4.2699 12.3931
        }
      }
    }
  }
}
MOTION
Frames:	4
Frame Time:	0.0333333
0.00908269 1.1713 -9.66036 -180 -74.9926 -180 -0.266272 5.22039 -0.356467 -0.502921 10.4423 -0.692794 -0.50292 10.4423 -0.692795 0.943803 -4.23354 -0.0303525 1.21948e-007 15.0925 -9.2772e-008 -1.89686 -8.76966 -11.0571 -89.7061 29.437 22.0759 -6.97463 -18.5037 16.0451 11.9955 -20.4192 -20.2656 1.98626e-031 2.38542e-015 -4.77083e-015 -3.18055e-015 4.77083e-015 -4.77083e-015 5.29669e-031 9.54166e-015 -3.18055e-015 3.18055e-015 -2.38542e-015 -3.18055e-015 3.18055e-015 -3.97569e-015 3.18055e-015 -3.18055e-015 8.74653e-015 -3.18055e-015 3.31043e-031 3.97569e-015 -4.77083e-015 3.18055e-015 -3.97569e-015 3.18055e-015 -3.18055e-015 8.74653e-015 -3.18055e-015 3.31043e-031 3.97569e-015 -4.77083e-015 3.18055e-015 -2.38542e-015 -3.18055e-015 3.18055e-015 -3.97569e-015 3.18055e-015 -3.18055e-015 8.74653e-015 -3.18055e-015 3.31043e-031 3.97569e-015 -4.77083e-015 3.18055e-015 -3.97569e-015 3.18055e-015 -3.18055e-015 8.74653e-015 -3.18055e-015 3.31043e-031 3.97569e-015 -4.77083e-015 19.8851 -4.30104 21.6712 51.8298 19.3664 17.4018 35.3371 -33.6337 3.65907 23.892 33.067 -2.58716 1.05934e-030 9.54166e-015 -6.36111e-015 0 7.95139e-015 -0 9.54166e-015 7.95139e-015 -3.18055e-015 -3.18055e-015 3.18055e-015 -3.18055e-015 1.59028e-014 3.18055e-015 3.18055e-015 -3.18055e-015 7.95139e-015 3.18055e-015 -6.36111e-015 4.77083e-015 -0 1.59028e-014 3.18055e-015 3.18055e-015 -3.18055e-015 7.95139e-015 3.18055e-015 -6.36111e-015 4.77083e-015 -0 -3.18055e-015 3.18055e-015 -3.18055e-015 1.59028e-014 3.18055e-015 3.18055e-015 -3.18055e-015 7.95139e-015 3.18055e-015 -6.36111e-015 4.77083e-015 -0 1.59028e-014 3.18055e-015 3.18055e-015 -3.18055e-015 7.95139e-015 3.18055e-015 -6.36111e-015 4.77083e-015 -0 17.7819 -42.6905 25.3178 170.911 53.7083 -166.893 15.6994 16.3625 -0.646178 -12.982 -32.1587 -18.1027 -169.504 68.4847 166.713 -13.3921 15.1158 1.07759 
0.0090818 1.17133 -9.66038 -180 -74.9926 -180 -0.266061 5.26587 -0.358022 -0.502112 10.5333 -0.695802 -0.502112 10.5333 -0.695803 0.943675 -4.00567 -0.0341612 6.36e-007 15.366 -1.85412e-007 -1.76754 -8.9868 -11.0858 -89.7061 29.437 22.0759 -6.97462 -18.5036 16.0451 10.6449 -19.9927 -20.8049 9.54166e-015 -8.74653e-015 9.54166e-015 9.54166e-015 -7.95139e-015 7.95139e-015 6.36111e-015 -1.11319e-014 7.95139e-015 2.20695e-032 7.95139e-016 -1.59028e-015 9.54166e-015 -1.66979e-014 1.43125e-014 9.54166e-015 -8.74653e-015 1.27222e-014 3.18055e-015 -9.54166e-015 9.54166e-015 9.54166e-015 -1.66979e-014 1.43125e-014 9.54166e-015 -8.74653e-015 1.27222e-014 3.18055e-015 -9.54166e-015 9.54166e-015 2.20695e-032 7.95139e-016 -1.59028e-015 9.54166e-015 -1.66979e-014 1.43125e-014 9.54166e-015 -8.74653e-015 1.27222e-014 3.18055e-015 -9.54166e-015 9.54166e-015 9.54166e-015 -1.66979e-014 1.43125e-014 9.54166e-015 -8.74653e-015 1.27222e-014 3.18055e-015 -9.54166e-015 9.54166e-015 19.8709 -4.52117 21.7527 51.9152 19.4057 17.1775 35.337 -33.6337 3.65905 23.8085 32.8877 -2.84577 1.40113e-006 6.58059e-007 -6.85703e-007 6.17947e-031 1.11319e-014 -3.18055e-015 1.40113e-006 6.58059e-007 -6.85703e-007 -6.36111e-015 0 3.18055e-015 1.40113e-006 6.58059e-007 -6.85703e-007 -6.36111e-015 1.59028e-014 -3.18055e-015 1.40113e-006 6.58059e-007 -6.85703e-007 1.40113e-006 6.58059e-007 -6.85703e-007 -6.36111e-015 1.59028e-014 -3.18055e-015 1.40113e-006 6.58059e-007 -6.85703e-007 -6.36111e-015 0 3.18055e-015 1.40113e-006 6.58059e-007 -6.85703e-007 -6.36111e-015 1.59028e-014 -3.18055e-015 1.40113e-006 6.58059e-007 -6.85703e-007 1.40113e-006 6.58059e-007 -6.85703e-007 -6.36111e-015 1.59028e-014 -3.18055e-015 1.40113e-006 6.58059e-007 -6.85703e-007 17.3704 -42.7662 24.9148 170.909 53.7084 -166.882 15.3647 16.3938 -0.471801 -12.7395 -32.1948 -17.8538 -169.503 68.4848 166.707 -13.1622 15.1424 0.928432 
0.00908057 1.17135 -9.66039 -180 -74.9926 -180 -0.265868 5.30169 -0.359229 -0.501424 10.6049 -0.698139 -0.501424 10.6049 -0.698139 0.943585 -3.82639 -0.0371563 2.22742e-007 15.581 1.48117e-007 -1.66585 -9.15766 -11.108 -89.7061 29.437 22.0759 -6.97461 -18.5037 16.045 9.58595 -19.6478 -21.2214 3.18055e-015 3.18055e-015 3.18055e-015 3.18055e-015 2.38542e-015 3.18055e-015 3.18055e-015 3.18055e-015 1.59028e-015 -0 -7.95139e-016 -0 -6.36111e-015 -7.95139e-016 3.18055e-015 9.54166e-015 7.95139e-016 -0 9.54166e-015 1.59028e-015 -0 -6.36111e-015 -7.95139e-016 3.18055e-015 9.54166e-015 7.95139e-016 -0 9.54166e-015 1.59028e-015 -0 -0 -7.95139e-016 -0 -6.36111e-015 -7.95139e-016 3.18055e-015 9.54166e-015 7.95139e-016 -0 9.54166e-015 1.59028e-015 -0 -6.36111e-015 -7.95139e-016 3.18055e-015 9.54166e-015 7.95139e-016 -0 9.54166e-015 1.59028e-015 -0 19.8599 -4.69436 21.8169 51.9825 19.4364 17.0011 35.3371 -33.6337 3.65909 23.7423 32.7471 -3.04903 1.59028e-014 1.43125e-014 9.54166e-015 1.27222e-014 7.95139e-015 1.27222e-014 1.90833e-014 4.77083e-015 1.90833e-014 6.36111e-015 1.27222e-014 -6.36111e-015 9.54166e-015 6.36111e-015 9.54166e-015 -4.41391e-031 1.59028e-015 1.59028e-014 9.54166e-015 1.59028e-015 1.90833e-014 9.54166e-015 6.36111e-015 9.54166e-015 -4.41391e-031 1.59028e-015 1.59028e-014 9.54166e-015 1.59028e-015 1.90833e-014 6.36111e-015 1.27222e-014 -6.36111e-015 9.54166e-015 6.36111e-015 9.54166e-015 -4.41391e-031 1.59028e-015 1.59028e-014 9.54166e-015 1.59028e-015 1.90833e-014 9.54166e-015 6.36111e-015 9.54166e-015 -4.41391e-031 1.59028e-015 1.59028e-014 9.54166e-015 1.59028e-015 1.90833e-014 17.0458 -42.8245 24.5968 170.909 53.7084 -166.872 15.1014 16.4177 -0.334487 -12.5487 -32.2226 -17.6579 -169.502 68.485 166.702 -12.9813 15.163 0.811052 
0.00908007 1.17137 -9.66041 -180 -74.9926 -180 -0.26566 5.33721 -0.360418 -0.500706 10.6759 -0.700444 -0.500706 10.676 -0.700443 0.943518 -3.64904 -0.0401249 -1.39737e-007 15.7942 -2.53517e-008 -1.56502 -9.32718 -11.1298 -89.7061 29.437 22.076 -6.97464 -18.5037 16.045 8.53869 -19.2979 -21.6277 -3.18055e-015 -1.59028e-015 6.36111e-015 -3.18055e-015 -3.18055e-015 -0 -3.18055e-015 7.95139e-016 6.36111e-015 -3.18055e-015 -2.38542e-015 1.59028e-015 -3.18055e-015 7.95139e-015 1.59028e-015 3.18055e-015 3.18055e-015 -0 -3.18055e-015 3.18055e-015 1.59028e-015 -3.18055e-015 7.95139e-015 1.59028e-015 3.18055e-015 3.18055e-015 -0 -3.18055e-015 3.18055e-015 1.59028e-015 -3.18055e-015 -2.38542e-015 1.59028e-015 -3.18055e-015 7.95139e-015 1.59028e-015 3.18055e-015 3.18055e-015 -0 -3.18055e-015 3.18055e-015 1.59028e-015 -3.18055e-015 7.95139e-015 1.59028e-015 3.18055e-015 3.18055e-015 -0 -3.18055e-015 3.18055e-015 1.59028e-015 19.8492 -4.86613 21.8804 52.0493 19.4666 16.826 35.3371 -33.6337 3.65909 23.6762 32.6077 -3.25051 1.90833e-014 2.38542e-014 -1.27222e-014 2.22639e-014 1.90833e-014 -6.36111e-015 2.22639e-014 1.90833e-014 -9.54166e-015 3.53113e-031 3.18055e-015 -6.36111e-015 2.54444e-014 1.59028e-014 -6.36111e-015 2.22639e-014 1.74931e-014 -3.18055e-015 1.90833e-014 6.36111e-015 -9.54166e-015 2.54444e-014 1.59028e-014 -6.36111e-015 2.22639e-014 1.74931e-014 -3.18055e-015 1.90833e-014 6.36111e-015 -9.54166e-015 3.53113e-031 3.18055e-015 -6.36111e-015 2.54444e-014 1.59028e-014 -6.36111e-015 2.22639e-014 1.74931e-014 -3.18055e-015 1.90833e-014 6.36111e-015 -9.54166e-015 2.54444e-014 1.59028e-014 -6.36111e-015 2.22639e-014 1.74931e-014 -3.18055e-015 1.90833e-014 6.36111e-015 -9.54166e-015 16.7232 -42.8807 24.2808 170.908 53.7085 -166.863 14.8402 16.4408 -0.19816 -12.3591 -32.2499 -17.4633 -169.502 68.4848 166.697 -12.8019 15.183 0.69454 
